<svg xmlns="http://www.w3.org/2000/svg" width="32.851" height="31.472" viewBox="0 0 32.851 31.472">
  <path id="dribble" d="M16.425,0C7.381,0,0,7.072,0,15.736S7.382,31.472,16.425,31.472,32.851,24.4,32.851,15.736,25.469,0,16.425,0ZM27.566,6.854a13.49,13.49,0,0,1,3.356,8.66,21.461,21.461,0,0,0-8.332-.107q-1.135.2-2.265.5-.375-.978-.8-1.939-.432-.98-.91-1.929C22.081,10.774,25.835,8.886,27.566,6.854ZM16.425,1.844a14.8,14.8,0,0,1,9.8,3.66c-1.007,1.316-3.878,3.232-8.483,4.884a40.113,40.113,0,0,0-5.764-7.874A15.017,15.017,0,0,1,16.425,1.844ZM10.07,3.252A38.474,38.474,0,0,1,15.906,11,35.892,35.892,0,0,1,2.275,12.7,14.067,14.067,0,0,1,10.07,3.252ZM1.925,15.736c0-.408.02-.812.056-1.211a27.314,27.314,0,0,0,2.747.134,40.807,40.807,0,0,0,12.076-2,39.661,39.661,0,0,1,1.7,3.809,27.456,27.456,0,0,0-4.648,2.1c-3.607,2.057-6.246,4.7-7.341,7.3A13.593,13.593,0,0,1,1.925,15.736Zm14.5,13.892A14.855,14.855,0,0,1,8.093,27.1c.731-2.368,3.206-4.929,6.744-6.947a25.341,25.341,0,0,1,4.291-1.928,41.585,41.585,0,0,1,2.033,10.642A15.007,15.007,0,0,1,16.425,29.628ZM23.039,28.1A42.971,42.971,0,0,0,20.956,17.67a20.088,20.088,0,0,1,9.866-.28A13.954,13.954,0,0,1,23.039,28.1Z" fill="#212960"/>
</svg>
