<svg xmlns="http://www.w3.org/2000/svg" width="26.916" height="26.916" viewBox="0 0 26.916 26.916">
  <path id="Icon_simple-whatsapp" data-name="Icon simple-whatsapp" d="M19.624,16.129c-.338-.168-1.982-.972-2.288-1.083s-.53-.168-.755.168-.865,1.081-1.059,1.3-.391.236-.724.084A9.1,9.1,0,0,1,12.1,14.936a10.175,10.175,0,0,1-1.862-2.321c-.2-.336-.021-.521.146-.69.153-.151.338-.387.506-.587a2.843,2.843,0,0,0,.333-.556.616.616,0,0,0-.028-.588c-.084-.168-.754-1.817-1.034-2.474s-.546-.572-.754-.572c-.193-.017-.416-.017-.64-.017a1.264,1.264,0,0,0-.894.4A3.744,3.744,0,0,0,6.7,10.31a6.562,6.562,0,0,0,1.367,3.449,14.954,14.954,0,0,0,5.72,5.03c.8.336,1.424.538,1.911.705a4.64,4.64,0,0,0,2.108.136,3.451,3.451,0,0,0,2.261-1.6,2.776,2.776,0,0,0,.2-1.6c-.083-.151-.3-.236-.639-.387m-6.108,8.347h-.018a11.219,11.219,0,0,1-5.669-1.548l-.4-.24L3.23,23.7,4.357,19.61l-.268-.421A11.123,11.123,0,0,1,21.413,5.468a10.977,10.977,0,0,1,3.262,7.839A11.137,11.137,0,0,1,13.533,24.394m9.48-20.526A13.617,13.617,0,0,0,13.508,0,13.334,13.334,0,0,0,1.9,20.005L0,26.916l7.1-1.853a13.528,13.528,0,0,0,6.4,1.623h.007a13.391,13.391,0,0,0,13.4-13.341A13.227,13.227,0,0,0,23,3.912" fill="#212960"/>
</svg>
